<?xml version="1.0" standalone="no"?>
<!DOCTYPE svg PUBLIC "-//W3C//DTD SVG 20010904//EN"
 "http://www.w3.org/TR/2001/REC-SVG-20010904/DTD/svg10.dtd">
<svg version="1.0" xmlns="http://www.w3.org/2000/svg"
 width="500.000000pt" height="500.000000pt" viewBox="0 0 500.000000 500.000000"
 preserveAspectRatio="xMidYMid meet">

<g transform="translate(0.000000,500.000000) scale(0.100000,-0.100000)"
fill="#000000" stroke="none">
<path d="M3367 4833 c-11 -10 -8 -53 3 -53 6 0 10 -18 10 -40 l0 -40 -52 0
c-69 0 -125 -16 -138 -40 -5 -10 -10 -50 -10 -89 l0 -70 -72 -3 c-60 -2 -73
-6 -76 -20 -3 -16 6 -18 72 -18 l76 0 0 -105 0 -105 -75 0 c-60 0 -75 -3 -75
-15 0 -12 15 -15 75 -15 l75 0 0 -110 0 -110 -38 0 c-21 0 -43 5 -49 11 -6 6
-21 9 -34 7 -18 -2 -25 -10 -27 -31 -4 -32 21 -46 49 -29 10 7 37 12 59 12
l40 0 0 -75 c0 -67 3 -79 25 -100 21 -22 33 -25 100 -25 l75 0 0 -38 c0 -21
-5 -43 -11 -49 -6 -6 -9 -21 -7 -34 2 -18 9 -24 27 -24 32 0 50 29 33 55 -6
11 -12 36 -12 55 l0 35 105 0 104 0 3 -72 c2 -46 7 -73 16 -76 9 -3 12 16 12
72 l0 76 110 0 110 0 0 -75 c0 -60 3 -75 15 -75 12 0 15 15 15 75 l0 75 75 0
c67 0 79 3 100 25 22 21 25 33 25 99 l0 75 72 3 c46 2 73 7 76 16 3 9 -16 12
-72 12 l-76 0 0 110 0 110 76 0 c56 0 75 3 72 13 -3 8 -30 13 -76 15 l-72 3 0
104 0 105 40 0 c22 0 49 -5 59 -12 15 -9 23 -9 35 1 35 29 6 82 -33 62 -11 -6
-38 -11 -60 -11 l-41 0 0 69 c0 59 -4 74 -23 97 -21 24 -32 27 -100 32 l-77 5
0 68 c0 55 -3 69 -15 69 -12 0 -15 -14 -15 -70 l0 -70 -110 0 -110 0 0 70 c0
56 -3 70 -15 70 -12 0 -15 -14 -15 -70 l0 -70 -105 0 -105 0 0 35 c0 19 5 44
12 54 16 25 3 51 -25 51 -13 0 -27 -3 -30 -7z m691 -185 c9 -9 12 -114 12
-412 0 -358 -2 -401 -17 -418 -15 -17 -41 -18 -414 -18 -348 0 -400 2 -413 16
-14 13 -16 65 -16 418 0 299 3 405 12 414 17 17 819 17 836 0z"/>
<path d="M3531 4551 c-12 -12 -21 -29 -21 -39 0 -14 -8 -19 -35 -20 -19 -1
-44 -6 -56 -12 -26 -15 -59 -69 -59 -99 0 -13 -11 -36 -25 -53 -28 -33 -30
-52 -11 -87 12 -21 11 -29 -7 -58 -28 -48 -18 -99 28 -139 21 -19 35 -40 35
-55 1 -47 56 -85 105 -73 12 3 26 1 29 -5 11 -17 78 -13 104 5 21 15 25 15 41
0 18 -16 91 -22 105 -8 4 4 26 7 48 8 32 0 46 6 64 28 13 15 24 37 24 50 0 13
12 31 30 44 17 13 34 39 41 61 10 35 9 45 -9 81 -17 36 -18 45 -7 67 16 30 3
78 -25 93 -11 6 -16 17 -13 28 7 27 -21 88 -50 106 -13 9 -41 17 -61 18 -28 1
-36 5 -36 20 0 10 -9 27 -21 39 -17 17 -28 20 -57 15 -21 -4 -44 -6 -52 -6 -8
0 -31 2 -52 6 -29 5 -40 2 -57 -15z m77 -23 c9 -9 12 -73 12 -224 l0 -213 -33
6 c-41 6 -87 -27 -87 -63 0 -31 18 -31 29 0 9 21 29 36 51 36 20 0 40 -34 40
-70 0 -22 -7 -45 -16 -54 -18 -18 -70 -21 -80 -5 -4 6 -20 9 -39 6 -46 -8 -75
15 -75 58 0 28 -6 37 -30 50 -59 30 -64 92 -13 139 l27 25 -27 25 c-15 14 -27
29 -27 34 0 13 23 39 40 44 11 3 15 19 15 52 1 75 46 100 135 75 12 -3 14 4
12 29 -5 52 34 82 66 50z m121 -2 c7 -8 11 -30 9 -48 -2 -25 0 -32 12 -29 75
19 107 11 125 -32 7 -18 11 -45 8 -62 -4 -24 0 -32 19 -40 31 -14 37 -60 9
-75 -27 -14 -26 -28 3 -51 48 -38 40 -112 -14 -132 -26 -10 -30 -16 -30 -49 0
-46 -32 -73 -74 -62 -15 3 -32 1 -40 -6 -8 -6 -30 -10 -48 -8 -51 5 -58 30
-58 204 l0 152 44 -5 c35 -4 48 -1 65 16 21 21 29 71 12 71 -6 0 -16 -12 -23
-27 -14 -30 -51 -41 -78 -24 -23 15 -27 163 -6 196 18 28 47 32 65 11z"/>
<path d="M3505 4360 c9 -43 -9 -62 -51 -54 -22 4 -34 2 -34 -5 0 -15 34 -31
65 -31 18 0 28 -7 35 -25 5 -14 14 -25 20 -25 13 0 13 47 0 55 -6 4 -8 21 -4
40 7 41 -3 75 -22 75 -12 0 -14 -7 -9 -30z"/>
<path d="M3700 4145 c-13 -16 -12 -17 40 -19 33 -1 35 -3 36 -36 2 -52 3 -54
19 -40 8 7 15 28 15 47 0 33 1 34 29 28 34 -7 50 9 24 24 -30 15 -149 13 -163
-4z"/>
<path d="M898 4760 c-76 -13 -146 -40 -178 -67 l-30 -25 0 -432 c0 -362 2
-435 15 -452 37 -54 209 -94 405 -94 212 0 385 46 418 110 9 19 11 124 10 443
l-3 419 -32 28 c-18 16 -63 39 -100 51 -59 19 -94 23 -263 25 -107 1 -216 -1
-242 -6z m382 -30 c89 -14 184 -47 205 -70 17 -19 17 -21 0 -40 -22 -24 -119
-57 -210 -70 -230 -32 -545 19 -545 90 0 70 332 124 550 90z m-465 -191 c106
-37 308 -49 462 -28 67 9 135 27 206 54 15 7 17 -2 17 -97 0 -122 -3 -126 -93
-157 -184 -64 -538 -49 -654 27 -22 13 -23 21 -23 124 0 101 1 110 18 103 9
-5 40 -16 67 -26z m0 -270 c158 -56 523 -46 647 17 15 8 29 14 33 14 3 0 5
-47 5 -103 0 -121 -3 -125 -93 -156 -184 -64 -538 -49 -654 27 -22 13 -23 21
-23 124 0 101 1 110 18 103 9 -5 40 -16 67 -26z m685 -339 c0 -130 -5 -138
-115 -173 -63 -20 -91 -22 -275 -22 -185 0 -212 2 -276 22 -100 32 -104 38
-104 167 0 99 1 108 18 101 111 -47 279 -70 435 -61 111 7 235 33 284 60 15 8
29 15 31 16 1 0 2 -49 2 -110z"/>
<path d="M763 4494 c-8 -22 18 -37 36 -20 7 8 10 19 7 25 -10 16 -36 13 -43
-5z"/>
<path d="M1190 4426 c0 -21 15 -28 45 -20 39 10 32 34 -10 34 -24 0 -35 -5
-35 -14z"/>
<path d="M763 4404 c-3 -8 -1 -20 6 -27 14 -14 47 15 37 32 -10 16 -36 13 -43
-5z"/>
<path d="M1117 4373 c-4 -3 -7 -13 -7 -20 0 -11 16 -13 72 -11 60 2 73 6 76
21 3 15 -5 17 -66 17 -38 0 -72 -3 -75 -7z"/>
<path d="M764 4215 c-7 -18 3 -35 21 -35 15 0 24 19 18 38 -6 17 -32 15 -39
-3z"/>
<path d="M1197 4163 c-18 -17 -5 -33 28 -33 28 0 35 4 35 20 0 15 -7 20 -28
20 -16 0 -32 -3 -35 -7z"/>
<path d="M764 4125 c-7 -18 3 -35 21 -35 15 0 24 19 18 38 -6 17 -32 15 -39
-3z"/>
<path d="M1168 4103 c-51 -4 -58 -7 -58 -25 0 -20 3 -20 73 -13 39 3 74 8 76
10 8 8 -9 35 -21 33 -7 -1 -39 -3 -70 -5z"/>
<path d="M764 3945 c-7 -18 3 -35 21 -35 15 0 24 19 18 38 -6 17 -32 15 -39
-3z"/>
<path d="M1190 3870 c0 -16 7 -20 35 -20 28 0 35 4 35 20 0 16 -7 20 -35 20
-28 0 -35 -4 -35 -20z"/>
<path d="M764 3855 c-7 -18 3 -35 21 -35 15 0 24 19 18 38 -6 17 -32 15 -39
-3z"/>
<path d="M1148 3823 c-25 -3 -38 -9 -38 -19 0 -11 16 -14 75 -14 68 0 75 2 75
20 0 21 -16 23 -112 13z"/>
<path d="M2647 4203 c-4 -3 -7 -17 -7 -30 l0 -23 -350 0 c-343 0 -350 0 -350
-20 0 -20 7 -20 350 -20 l350 0 0 -25 c0 -41 26 -41 75 0 25 20 45 40 45 45 0
10 -88 80 -100 80 -4 0 -10 -3 -13 -7z"/>
<path d="M3650 3202 l0 -258 -31 -11 -32 -12 36 -48 c19 -26 42 -49 50 -51 15
-3 77 73 77 95 0 8 -13 16 -30 20 l-30 6 0 258 c0 252 -1 259 -20 259 -19 0
-20 -7 -20 -258z"/>
<path d="M600 2858 c-20 -21 -20 -33 -20 -473 l0 -452 26 -24 c25 -24 29 -24
235 -27 l210 -3 -3 -72 c-3 -67 -5 -72 -26 -75 -18 -3 -30 -18 -49 -60 -14
-31 -26 -70 -26 -86 -1 -54 11 -56 304 -56 147 0 275 3 284 6 33 13 36 50 9
119 -20 51 -31 66 -55 74 -28 10 -29 12 -29 80 l0 70 209 3 c206 3 210 3 235
27 l26 24 0 452 0 452 -23 21 -23 22 -632 0 -631 0 -21 -22z m1270 -47 c6 -13
10 -152 10 -385 l0 -366 -625 0 -625 0 0 373 c0 277 3 376 12 385 9 9 159 12
615 12 585 0 603 -1 613 -19z m10 -822 c0 -6 -5 -19 -10 -30 -10 -18 -28 -19
-613 -19 -629 0 -627 0 -627 42 0 17 30 18 625 18 436 0 625 -3 625 -11z
m-480 -179 l0 -70 -145 0 -145 0 0 70 0 70 145 0 145 0 0 -70z m85 -166 c8
-20 15 -40 15 -45 0 -5 -110 -9 -245 -9 -135 0 -245 4 -245 9 0 5 7 25 15 45
l15 36 215 0 215 0 15 -36z"/>
<path d="M1260 2755 c-10 -12 -10 -18 0 -30 10 -12 29 -15 74 -13 58 3 61 4
61 28 0 24 -3 25 -61 28 -45 2 -64 -1 -74 -13z"/>
<path d="M1464 2755 c-14 -36 3 -46 73 -43 65 3 68 4 68 28 0 24 -3 25 -68 28
-53 2 -68 0 -73 -13z"/>
<path d="M1674 2755 c-13 -33 4 -45 64 -45 41 0 64 5 72 15 23 27 -5 45 -72
45 -43 0 -60 -4 -64 -15z"/>
<path d="M825 2715 c-124 -71 -128 -77 -133 -187 -6 -144 3 -160 118 -225 52
-29 106 -53 119 -53 29 0 165 72 204 108 27 25 27 28 27 147 0 113 -2 123 -22
142 -40 36 -182 113 -208 113 -14 0 -61 -20 -105 -45z m195 -61 l80 -46 0
-104 0 -103 -77 -45 c-43 -25 -85 -46 -94 -46 -8 0 -51 21 -95 48 l-79 47 -3
80 c-2 44 0 90 3 102 5 22 144 112 173 113 7 0 49 -21 92 -46z"/>
<path d="M852 2592 c-78 -73 -33 -202 70 -202 53 0 92 22 112 65 53 112 -92
221 -182 137z m125 -58 c15 -24 15 -29 2 -53 -27 -48 -109 -32 -109 22 0 56
76 77 107 31z"/>
<path d="M1464 2635 c-11 -28 16 -45 71 -45 55 0 82 17 71 45 -4 11 -22 15
-71 15 -49 0 -67 -4 -71 -15z"/>
<path d="M1677 2643 c-13 -12 -7 -41 9 -47 9 -3 38 -6 64 -6 50 0 73 18 63 48
-5 13 -124 18 -136 5z"/>
<path d="M1630 2534 c-48 -20 -50 -29 -50 -196 l0 -158 -30 0 -30 0 0 128 c0
162 -3 167 -121 167 -113 0 -114 -1 -114 -174 0 -195 -21 -181 266 -181 245 0
251 1 265 54 3 13 4 91 2 174 -4 182 -4 183 -105 188 -37 2 -75 1 -83 -2z
m130 -209 l0 -145 -60 0 -60 0 0 145 0 145 60 0 60 0 0 -145z m-300 -30 l0
-115 -60 0 -60 0 0 115 0 115 60 0 60 0 0 -115z"/>
<path d="M696 2165 c-3 -8 -3 -22 0 -30 5 -13 38 -15 233 -13 l226 3 0 25 0
25 -226 3 c-195 2 -228 0 -233 -13z"/>
<path d="M3580 2641 c-83 -26 -159 -90 -201 -171 -33 -63 -34 -203 -2 -272 49
-106 156 -178 277 -186 133 -8 246 60 306 182 38 76 43 163 15 248 -24 71
-119 167 -189 191 -51 17 -161 21 -206 8z"/>
<path d="M2283 2138 c-24 -17 -43 -37 -43 -44 0 -16 79 -74 102 -74 13 0 18 8
18 25 l0 25 260 0 260 0 0 25 0 25 -259 0 -260 0 -3 22 c-4 33 -27 32 -75 -4z"/>
<path d="M3306 1935 c-71 -29 -138 -91 -165 -154 -21 -51 -37 -175 -27 -215
l6 -26 556 0 556 0 -4 98 c-3 75 -9 108 -26 144 -29 60 -89 119 -150 149 -46
24 -54 24 -367 27 -320 2 -320 2 -379 -23z"/>
<path d="M1216 1333 c-12 -40 -26 -180 -26 -251 1 -155 43 -275 123 -349 94
-87 180 -109 382 -100 l133 6 6 -24 c4 -14 13 -25 20 -25 15 0 86 82 86 99 0
12 -58 39 -102 48 -26 5 -28 3 -28 -24 0 -38 -19 -43 -175 -43 -194 0 -294 49
-354 173 -52 105 -64 239 -37 415 6 45 10 85 7 87 -10 11 -30 4 -35 -12z"/>
<path d="M2350 781 c0 -6 5 -11 10 -11 6 0 10 -30 10 -70 0 -40 -4 -70 -10
-70 -5 0 -10 -4 -10 -10 0 -13 106 -13 131 0 23 13 26 68 4 76 -12 5 -12 9 0
28 25 37 0 59 -74 64 -41 3 -61 1 -61 -7z m110 -26 c17 -20 -3 -45 -36 -45
-20 0 -24 5 -24 30 0 25 4 30 24 30 13 0 29 -7 36 -15z m5 -95 c0 -21 -5 -26
-32 -28 -31 -3 -33 -1 -33 28 0 29 2 31 33 28 27 -2 32 -7 32 -28z"/>
<path d="M2810 775 c0 -8 7 -15 15 -15 8 0 15 7 15 15 0 8 -7 15 -15 15 -8 0
-15 -7 -15 -15z"/>
<path d="M3530 780 c0 -5 5 -10 10 -10 6 0 10 -8 10 -19 0 -14 -6 -17 -23 -14
-34 7 -57 -21 -57 -66 0 -50 13 -59 80 -59 30 1 49 3 43 5 -9 3 -13 31 -13 89
0 83 0 84 -25 84 -14 0 -25 -4 -25 -10z m18 -98 c4 -37 -12 -64 -34 -55 -15 5
-20 73 -7 87 16 16 38 -1 41 -32z"/>
<path d="M3890 775 c0 -8 7 -15 15 -15 8 0 15 7 15 15 0 8 -7 15 -15 15 -8 0
-15 -7 -15 -15z"/>
<path d="M4090 775 c0 -8 7 -15 15 -15 8 0 15 7 15 15 0 8 -7 15 -15 15 -8 0
-15 -7 -15 -15z"/>
<path d="M2510 730 c0 -5 5 -10 10 -10 6 0 10 -20 10 -44 0 -24 6 -48 13 -54
6 -6 37 -10 67 -10 30 0 49 2 43 5 -9 3 -13 26 -13 64 0 52 -2 59 -19 59 -11
0 -23 -4 -26 -10 -3 -5 -1 -10 5 -10 7 0 10 -16 8 -42 -2 -36 -7 -44 -25 -46
-22 -3 -23 0 -23 52 0 53 -1 56 -25 56 -14 0 -25 -4 -25 -10z"/>
<path d="M2685 726 c-25 -18 -13 -42 30 -61 39 -16 43 -38 7 -43 -17 -3 -22 2
-22 17 0 25 -18 28 -27 5 -8 -20 13 -34 53 -34 41 0 59 21 44 49 -6 12 -16 21
-23 21 -7 0 -22 7 -33 15 -16 13 -17 16 -4 25 11 7 19 4 32 -13 16 -21 17 -21
24 -3 13 33 -44 49 -81 22z"/>
<path d="M2790 730 c0 -5 5 -10 10 -10 15 0 13 -97 -2 -103 -7 -3 5 -5 27 -5
22 0 34 2 28 5 -9 3 -13 26 -13 64 0 56 -1 59 -25 59 -14 0 -25 -4 -25 -10z"/>
<path d="M2870 729 c0 -5 5 -9 10 -9 15 0 13 -97 -2 -103 -7 -3 5 -6 27 -6 25
0 35 2 27 8 -9 5 -12 24 -10 52 2 36 7 44 23 44 16 0 21 -8 23 -44 2 -28 -1
-47 -10 -52 -8 -6 2 -8 27 -8 22 0 34 3 28 6 -8 2 -13 22 -13 44 0 65 -11 76
-75 76 -30 0 -55 -4 -55 -8z"/>
<path d="M3050 720 c-24 -24 -26 -57 -4 -88 19 -28 65 -29 89 -2 10 11 13 20
7 20 -6 0 -14 -4 -17 -10 -10 -16 -52 -12 -59 6 -9 24 -9 24 39 24 49 0 56 10
29 48 -19 28 -57 29 -84 2z m68 -17 c2 -9 -7 -13 -27 -13 -30 0 -39 9 -24 24
11 10 46 3 51 -11z"/>
<path d="M3182 728 c-23 -23 -13 -45 28 -62 42 -17 50 -30 24 -40 -25 -10 -31
-7 -38 16 -4 17 -8 20 -17 11 -20 -20 -2 -43 33 -43 69 0 78 43 16 73 -44 21
-49 37 -13 37 16 0 25 -6 25 -15 0 -18 16 -20 26 -3 17 27 -59 51 -84 26z"/>
<path d="M3302 728 c-23 -23 -13 -45 28 -62 42 -17 50 -30 24 -40 -25 -10 -31
-7 -38 16 -4 17 -8 20 -17 11 -20 -20 -2 -43 33 -43 69 0 78 43 16 73 -44 21
-49 37 -13 37 16 0 25 -6 25 -15 0 -18 16 -20 26 -3 17 27 -59 51 -84 26z"/>
<path d="M3630 720 c-24 -24 -26 -57 -4 -88 19 -28 65 -29 89 -2 10 11 13 20
7 20 -6 0 -14 -4 -17 -10 -10 -16 -52 -12 -59 6 -9 24 -9 24 39 24 49 0 56 10
29 48 -19 28 -57 29 -84 2z m68 -17 c2 -9 -7 -13 -27 -13 -30 0 -39 9 -24 24
11 10 46 3 51 -11z"/>
<path d="M3761 714 c-25 -32 -26 -52 -5 -82 18 -26 75 -30 94 -7 17 21 7 29
-18 14 -39 -25 -74 12 -54 57 15 31 53 34 45 3 -5 -16 -2 -20 12 -18 25 5 29
23 10 43 -24 24 -61 20 -84 -10z"/>
<path d="M3875 730 c-3 -5 1 -10 9 -10 24 0 22 -85 -1 -99 -14 -8 -8 -10 27
-10 35 0 41 2 28 10 -14 8 -18 23 -18 64 0 48 -3 55 -19 55 -11 0 -23 -4 -26
-10z"/>
<path d="M3966 725 c-21 -21 -10 -43 31 -60 38 -16 40 -38 5 -43 -16 -2 -20 1
-16 11 7 19 -14 33 -28 19 -18 -18 10 -42 47 -42 65 0 72 50 10 76 -19 8 -35
19 -35 24 0 16 37 12 44 -5 8 -21 26 -19 26 4 0 32 -57 43 -84 16z"/>
<path d="M4075 730 c-3 -5 1 -10 9 -10 24 0 22 -85 -1 -99 -14 -8 -8 -10 27
-10 35 0 41 2 28 10 -14 8 -18 23 -18 64 0 48 -3 55 -19 55 -11 0 -23 -4 -26
-10z"/>
<path d="M4176 724 c-25 -25 -30 -61 -11 -90 13 -21 23 -25 53 -22 29 2 40 9
50 31 31 64 -44 130 -92 81z m68 -20 c10 -26 7 -52 -9 -68 -30 -30 -63 9 -51
60 7 28 50 34 60 8z"/>
<path d="M4290 730 c0 -5 5 -10 10 -10 15 0 13 -97 -2 -103 -7 -3 5 -6 27 -6
26 0 35 2 26 8 -8 5 -12 24 -11 52 2 24 2 50 1 57 -1 14 -51 17 -51 2z"/>
<path d="M4355 730 c-3 -5 3 -10 14 -10 18 0 21 -6 21 -49 0 -30 -5 -51 -12
-54 -7 -3 5 -5 27 -5 22 0 34 2 28 5 -8 3 -13 23 -13 52 0 26 -5 52 -12 59
-15 15 -45 16 -53 2z"/>
</g>
</svg>
